# xmcd CD database file
#
# Track frame offsets:
#	150
#	12200
#	28200
#	42660
#	57430
#	73030
#	98020
#	107530
#	124590
#
# Disc length: 1855 seconds
#
# Revision: 0
# Processed by: cddbd v1.4PL0 Copyright (c) Steve Scherf et al.
# Submitted via: CdAid (MTCDDB.DLL V2003.01.23)
#
DISCID=76073d09
DTITLE=Emmylou Harris - Roses in the Snow
DYEAR=1989
DGENRE=Bluegrass
TTITLE0=Roses in the Snow
TTITLE1=Wayfaring Stranger
TTITLE2=Green Pastures
TTITLE3=The Boxer
TTITLE4=Darkest Hour is just before dawn
TTITLE5=I'll go Strpping Too/You're learning
TTITLE6=Jordan
TTITLE7=Miss the Mississippi
TTITLE8=Gold Watch and Chain
EXTD=YEAR: 1989 ID3G:  17 
EXTT0=
EXTT1=
EXTT2=
EXTT3=
EXTT4=
EXTT5=
EXTT6=
EXTT7=
EXTT8=
PLAYORDER=
